<?xml version="1.0" encoding="utf-8"?>
<!-- Generator: Adobe Adobe Illustrator 24.2.0, SVG Export Plug-In . SVG Version: 6.00 Build 0)  -->
<svg version="1.1" id="Layer_1" xmlns="http://www.w3.org/2000/svg" xmlns:xlink="http://www.w3.org/1999/xlink" x="0px" y="0px"
	 viewBox="0 0 600 610" style="enable-background:new 0 0 600 610;" xml:space="preserve">
<style type="text/css">
	.st0{fill:#FFE11F;stroke:#FFFFFF;stroke-miterlimit:10;}
	.st1{fill:#FFE11F;stroke:#FFE11F;stroke-miterlimit:10;}
	.st2{fill:#FFE11F;stroke:#FCCE00;stroke-miterlimit:10;}
	.st3{fill:#FFFFFF;}
	.st4{fill:#F15A24;}
	.st5{fill:#D44613;}
	.st6{fill:#FFA787;}
	.st7{fill:#FFB89E;}
</style>
<path class="st0" d="M298.62,187.41c-18.29-31.14-64.3-41.84-96.58-22.48s-45.04,65.3-26.78,96.46s64.26,41.9,96.56,22.57
	S316.97,218.65,298.62,187.41z"/>
<path class="st1" d="M185.61,278.95c-30.5,22.07-36.43,67.97-18.44,99.26s54.53,48.54,91.29,51.85c36.76,3.32,74.02-5.5,109.84-16.4
	c33.89-10.31,61.62-40.11,69.09-74.26s-5.67-71.09-32.73-92.03c-14.9-11.53-26.93,8.54-44.79,16.33
	c-3.93,1.72-14.84,7.43-19.13,7.61c-19.42,0.86-38.53,10.18-55.18,0.15c-2.68-1.62-55.36,3.87-57.78,1.88
	c-7.82-6.42-40.45-10.35-40.45-0.24"/>
<path class="st2" d="M279.65,302.58c-23.4,15.04-22,37.81-13.9,56.09c9.09,20.51,25.85,26.63,37.49,26.76
	c27.79,0.31,49.59-4.42,72.18-20.1c36.63-25.43,7.61-42.39,8.56-43.2"/>
<path d="M203.03,191.98c-6.88,5.09-8.91,15.51-4.28,22.02c4.63,6.51,15.1,7.97,22.13,3.1c7.03-4.88,9.4-15.25,5-21.92
	C221.49,188.51,210.78,186.25,203.03,191.98z"/>
<path class="st3" d="M210.28,198.31c2.19,1.39,2.87,4.64,1.44,6.91s-4.73,3.17-7.01,1.92c-2.28-1.25-3.16-4.45-1.86-6.79
	C204.13,198,207.57,196.59,210.28,198.31z"/>
<path class="st5" d="M138.74,226.3c1.74,9,4.68,19.02,13.34,22.18c8.66,3.17,20.8,3.38,27.84,1.71c2.37-0.56,10.29-5.42,10.86-6.84
	c0.48-1.19-5.41-0.66-6.63-0.96c-5.12-1.25-16.95-4.33-21.33-1.03"/>
<path class="st4" d="M184.84,233.68c-1.91-5.88-3.71-12.54-9.28-15.16l-37.42,7.85c0.9,5.24,2.38,10.88,6.74,13.98
	c4.36,3.1,9.91,4.33,14.96,3.31c9.43-1.89,21.85,0.21,31.03-0.34C189.55,238.83,186.28,238.14,184.84,233.68z"/>
<g>
	<g>
		<path class="st6" d="M96.89,190.81c0.29,0,0.58-0.5,0.87-0.5C97.46,190.31,97.17,190.81,96.89,190.81L96.89,190.81z"/>
	</g>
</g>
<g>
	<g>
		<path class="st7" d="M97.65,195.41c0.29,0,0.58-0.5,0.87-0.5C98.23,194.91,97.94,195.41,97.65,195.41L97.65,195.41z"/>
	</g>
</g>
<path class="st7" d="M242.69,234.33c0.06-0.29,0.11-0.57,0.12-0.86c0-0.02,0.01-0.04,0.01-0.06c0.33-3.1-0.42-6.49-3.2-8.22
	c-2.98-1.85-7.24-2.13-10.36-0.32c-5.67,3.3-7.12,11.35-1.9,15.31c3.03,2.3,7.49,2.49,10.93,1.03
	C241.02,240.07,242.24,237.14,242.69,234.33z"/>
<g>
	<g>
		<path class="st7" d="M184.18,327.21c0.29,0,0.58-0.5,0.87-0.5C184.75,326.71,184.46,327.21,184.18,327.21L184.18,327.21z"/>
	</g>
</g>
</svg>
